<svg id="_0037_digital_nomad" xmlns="http://www.w3.org/2000/svg" viewBox="0 0 500 500" data-imageid="digital-nomad-21" imageName="Digital Nomad" class="illustrations_image" style="width: 155px;"><defs><style>.cls-1_digital-nomad-21,.cls-2_digital-nomad-21{fill:#fff;}.cls-3_digital-nomad-21{fill:#f4a28c;}.cls-4_digital-nomad-21{fill:#a5a5a5;}.cls-5_digital-nomad-21{opacity:.03;}.cls-5_digital-nomad-21,.cls-6_digital-nomad-21{fill:#000001;}.cls-7_digital-nomad-21{fill:#e6e6e6;}.cls-8_digital-nomad-21{fill:#ce8172;opacity:.31;}.cls-9_digital-nomad-21{opacity:.58;}.cls-9_digital-nomad-21,.cls-10_digital-nomad-21,.cls-11_digital-nomad-21{fill:#68e1fd;}.cls-2_digital-nomad-21{opacity:.2;}.cls-12_digital-nomad-21{fill:#24285b;}.cls-6_digital-nomad-21{opacity:.08;}.cls-10_digital-nomad-21{opacity:.73;}.cls-13_digital-nomad-21{fill:#f2f2f2;}.cls-14_digital-nomad-21{fill:#ffd200;}</style></defs><ellipse id="sd_digital-nomad-21" class="cls-5_digital-nomad-21" cx="280.46" cy="437.51" rx="193.91" ry="34.4"/><g id="plant_digital-nomad-21"><path class="cls-9_digital-nomad-21 targetColor" d="m168.88,412.79s-17.94-4.82-21.91-21.49c0,0,27.75-5.73,28.66,22.93l-6.75-1.45Z" style="fill: rgb(104, 225, 253);"/><path class="cls-10_digital-nomad-21 targetColor" d="m171.07,411s-12.61-19.75-1.66-38.3c0,0,21.17,13.32,11.89,38.3h-10.23Z" style="fill: rgb(104, 225, 253);"/><path class="cls-11_digital-nomad-21 targetColor" d="m174.3,411s6.53-20.93,26.51-24.98c0,0,3.81,13.56-12.85,24.98h-13.67Z" style="fill: rgb(104, 225, 253);"/><polygon class="cls-12_digital-nomad-21" points="161.3 410.58 165.04 435.43 187.92 435.43 191.19 410.58 161.3 410.58"/></g><g id="person_digital-nomad-21"><path class="cls-11_digital-nomad-21 targetColor" d="m280.19,138.13c11.92-11.89,32.36-6.35,36.15,10.05,3.21,13.87,1.45,34.17-16.3,61.59-38.25,59.06-62.44,119.64-137.21,41.38l13.41-13.41s39.08,33.64,56.14,2.84c13.75-24.83,21.89-76.6,47.81-102.45Z" style="fill: rgb(104, 225, 253);"/><path class="cls-2_digital-nomad-21" d="m280.19,138.13c11.92-11.89,32.36-6.35,36.15,10.05,3.21,13.87,1.45,34.17-16.3,61.59-38.25,59.06-62.44,119.64-137.21,41.38l13.41-13.41s39.08,33.64,56.14,2.84c13.75-24.83,21.89-76.6,47.81-102.45Z"/><path class="cls-3_digital-nomad-21" d="m308.43,77.77s.83,12.43,4.15,20.26c1.35,3.18,5.08,4.68,8.23,3.29,3.92-1.73,8.72-5.21,9.09-11.92l2.02-11.32s1.02-7.14-6.69-11.06c-7.71-3.92-17.68,3.19-16.8,10.74Z"/><polygon class="cls-3_digital-nomad-21" points="330.23 79.9 355.89 120.63 332.22 127.15 325.64 98.24 330.23 79.9"/><path class="cls-3_digital-nomad-21" d="m309.35,85.57l-2.7,5.27c-.67,1.3.25,2.85,1.71,2.9l4.84.16-3.86-8.33Z"/><path class="cls-8_digital-nomad-21" d="m325.64,98.24s4.25-3.04,4.61-10.53c0,0,8.33,9.62-2.62,19.24l-1.98-8.7Z"/><path class="cls-7_digital-nomad-21" d="m413.56,338.99s136.81-184.82,0-222.68c-49.9-13.81-125.83,5.65-95.92,183.56l95.92,39.12Z"/><polygon class="cls-4_digital-nomad-21" points="370.64 354.45 388.54 436.81 400.81 436.81 386.6 348.9 370.64 354.45"/><polygon class="cls-4_digital-nomad-21" points="285.37 349.04 267.47 431.4 255.19 431.4 269.41 343.49 285.37 349.04"/><path class="cls-7_digital-nomad-21" d="m413.56,338.99c-4.72,13-25.19,33.96-35.06,33.47-33.97-1.7-105.42-18.06-105.42-18.06-9.88,0-17.89-8.01-17.89-17.89l5.02-5.37c0-9.88,14.87-10.03,24.76-10.03h110.7c9.88,0,17.89,8.01,17.89,17.89h0Z"/><path class="cls-11_digital-nomad-21 targetColor" d="m271.52,168.15c-.53-19.73,12.36-37.22,31.39-42.45,21.64-5.95,67.49-10.05,97.91-2.15,55.68,14.46,23.08,155.07-23.29,197.56l-104.27-15.93s20.12-55.64,6.55-90.88c-5.91-15.35-7.91-32.11-8.29-46.14Z" style="fill: rgb(104, 225, 253);"/><path class="cls-14_digital-nomad-21" d="m308.43,77.77l-.41-2.85c-.7-4.91-3.08-9.32-6.23-13.16-.93-1.13-1.48-2.73-1-4.97,1.38-6.42,5.42,1.97,10.26-3.73,4.83-5.7,4.48-8.54,10.03-7.6,5.55.94-2.9,8.21,4.19,7.36s9.84-7.53,11.77-1.56c.48,1.5.61,2.7.52,3.65-.19,2.02.97,3.86,2.78,4.77s2.95,2.33,1.46,4.65c-3.32,5.15-7.44,6.06-8.71,20.81l-5.98-1.16s.25-11.2-4.84-13.3c-5.09-2.1-14.35,2.26-13.85,7.09Z"/><path class="cls-6_digital-nomad-21" d="m388.44,138.94s-26.91,10.9-22.97,47.99c2.7,25.41,35.15,108.06-46.18,84.4l-1.64,31.05,40.57,15.8,19.31,2.91,6.79-7.02,34.94-49.71-10.66-63.99-20.15-61.44Z"/><polygon class="cls-14_digital-nomad-21" points="226.96 219.91 326.95 227.89 329.37 300.84 359.6 312.58 357.09 322.75 237.81 309.49 226.96 219.91"/><circle class="cls-1_digital-nomad-21" cx="277.15" cy="261.05" r="9.19"/><path class="cls-11_digital-nomad-21 targetColor" d="m299.01,414.31s-3.14,8.72-11.01,9.38c-7.88.67-9.94,8.37-2.86,10.37,7.08,2.01,25.35-7.1,25.35-7.1l-.51-11.37-10.97-1.29Z" style="fill: rgb(104, 225, 253);"/><path class="cls-12_digital-nomad-21" d="m377.52,321.1l-43.42-6.55c-26.86-4.05-50.32,18.33-47.54,45.34l5.67,55.16h21.3l-1.84-51.64c-.44-12.31,10.47-21.99,22.63-20.03,18.48,2.98,41.38,1.69,43.2-22.29Z"/><path class="cls-11_digital-nomad-21 targetColor" d="m254.82,414.31s-3.14,8.72-11.01,9.38c-7.88.67-9.94,8.37-2.86,10.37,7.08,2.01,25.35-7.1,25.35-7.1l-.51-11.37-10.97-1.29Z" style="fill: rgb(104, 225, 253);"/><path class="cls-12_digital-nomad-21" d="m333.33,321.1l-43.42-6.55c-26.86-4.05-50.32,18.33-47.54,45.34l5.67,55.16h21.3l-1.84-51.64c-.44-12.31,10.47-21.99,22.63-20.03,18.48,2.98,41.38,1.69,43.2-22.29Z"/><path class="cls-11_digital-nomad-21 targetColor" d="m383.2,149.71c2.93-16.57,22.85-23.77,35.37-12.52,10.59,9.52,20.8,27.14,22.01,59.79,2.59,70.32,17.55,133.8-88.6,112.65l3.28-18.68s51.31,5.11,47.6-29.9c-2.99-28.22-26.05-75.29-19.67-111.33Z" style="fill: rgb(104, 225, 253);"/><path class="cls-2_digital-nomad-21" d="m383.2,149.71c2.93-16.57,22.85-23.77,35.37-12.52,10.59,9.52,20.8,27.14,22.01,59.79,2.59,70.32,17.55,133.8-88.6,112.65l3.28-18.68s51.31,5.11,47.6-29.9c-2.99-28.22-26.05-75.29-19.67-111.33Z"/><path class="cls-3_digital-nomad-21" d="m354.78,293.7s-21.82-9.24-25.41,7.14l22.61,8.79,2.8-15.93Z"/><path class="cls-3_digital-nomad-21" d="m324.85,84.34s-.64-4.75,2.98-4.94,4.58,6.68-.16,8.06l-2.82-3.13Z"/><path class="cls-11_digital-nomad-21 targetColor" d="m321.55,121.96s-3.16-8.29,11.73-10.94c14.89-2.65,27.55-4.43,30.8,8.15" style="fill: rgb(104, 225, 253);"/><path class="cls-2_digital-nomad-21" d="m321.55,121.96s-3.16-8.29,11.73-10.94c14.89-2.65,27.55-4.43,30.8,8.15"/><path class="cls-6_digital-nomad-21" d="m328.47,273.65s-51.33,0-92.89,17.45l2.23,18.39,119.29,13.26,2.5-10.17-30.22-11.75-.9-27.19Z"/><path class="cls-14_digital-nomad-21" d="m136.8,256.04h-10.28v-5.56h10.28c5.41,0,9.81-4.4,9.81-9.81s-4.4-9.81-9.81-9.81h-10.28v-5.56h10.28c8.48,0,15.38,6.9,15.38,15.38s-6.9,15.38-15.38,15.38Z"/><path class="cls-3_digital-nomad-21" d="m174.08,239.89s-4.28-13.15-20.97-9.87c-16.69,3.28-12.68,28.05,9.72,21.13l11.25-11.25Z"/><rect class="cls-12_digital-nomad-21" x="99.83" y="217.02" width="34" height="46.14"/><path class="cls-6_digital-nomad-21" d="m129.42,216.48s6.67-8.24-1.5-11.35-14.38,7.59-17.83-3.45,3.8-19.67-11.39-20.01c-15.18-.35-23.81,18.29-27.26,0-3.45-18.29-15.18-22.77-29.67-19.67-14.49,3.11-23.46,57.71,5.52,56.63,28.98-1.08,35.88-20.5,41.06-7.34,5.18,13.16,19.7,5.19,19.7,5.19h21.36Z"/></g><g id="clock_digital-nomad-21"><circle class="cls-7_digital-nomad-21" cx="174.08" cy="96.49" r="50.72"/><circle class="cls-13_digital-nomad-21" cx="174.08" cy="96.49" r="34.13"/><path class="cls-4_digital-nomad-21" d="m183.51,106.41c-.44,0-.88-.15-1.24-.46l-9.43-7.99c-.43-.36-.68-.9-.68-1.46v-23.62c0-1.06.86-1.92,1.92-1.92s1.92.86,1.92,1.92v22.73l8.76,7.42c.81.68.91,1.9.22,2.71-.38.45-.92.68-1.47.68Z"/></g></svg>